<?xml version="1.0" encoding="utf-8"?>
<!-- Generator: Adobe Illustrator 22.0.1, SVG Export Plug-In . SVG Version: 6.00 Build 0)  -->
<svg version="1.1" id="Layer_1" xmlns="http://www.w3.org/2000/svg" xmlns:xlink="http://www.w3.org/1999/xlink" x="0px" y="0px"
	 viewBox="0 0 291 472" style="enable-background:new 0 0 291 472;" xml:space="preserve">
<style type="text/css">
	.st0{fill:#CCCCCC;}
</style>
<g>
	<path class="st0" d="M275.1,262.1c0,23.7,0.6,47.4-0.1,71.1c-1.9,64.4-50.4,116.4-115.2,124.1c-58.9,7-117.4-32.4-135-91.3
		c-1.4-4.5-2.4-9.1-3.2-13.8c-2.4-14.6-1.4-28.8,16.4-31.4c16.5-2.4,21.1,10.5,24.4,23.9c14.8,60,73.5,89.1,124.8,61.6
		c29.2-15.6,45.2-40.7,45.8-73.9c0.9-46,0.3-92,0.4-138.1c0-12.5-2-24.6-17.6-24c-15.2,0.6-17.1,12.9-17.1,25.2
		c-0.1,42,0,83.9-0.3,125.9c-0.3,37.2-20.2,60-51.6,59.7c-31.2-0.3-51.3-23.7-51.5-60.2c-0.1-15.6-0.1-31.1,0.3-46.7
		c0.3-13.3,6.9-22.8,20.6-22.9c16.7-0.1,20.9,14.8,20.5,28.8c-0.6,20.7-2.3,46.2,8.7,64.9c13.1-19.2,11.4-47.7,11.5-69.5
		c0.1-23.9,0-47.8,0.1-71.7c0-8.1,0.1-16.3,1.4-24.3c5.1-31.4,30.9-53,60.7-51.4c30.8,1.7,54.7,26.6,55.9,58.8
		c0.5,12.8,0.1,25.7,0.1,38.6C275.2,237.7,275.2,249.9,275.1,262.1C275.2,262.1,275.1,262.1,275.1,262.1z"/>
	<path class="st0" d="M263.4,61.5c0.2,27.3-21.4,49.1-48.3,48.8c-26.4-0.3-47.3-21.2-47.5-47.6c-0.2-27.4,21.2-49,48.3-48.8
		C242.2,14.1,263.2,35.1,263.4,61.5z"/>
</g>
</svg>
