<?xml version="1.0" encoding="utf-8"?>
<!-- Generator: Adobe Illustrator 22.0.1, SVG Export Plug-In . SVG Version: 6.00 Build 0)  -->
<svg version="1.1" id="Layer_1" xmlns="http://www.w3.org/2000/svg" xmlns:xlink="http://www.w3.org/1999/xlink" x="0px" y="0px"
	 viewBox="0 0 520 498.3" style="enable-background:new 0 0 520 498.3;" xml:space="preserve">
<style type="text/css">
	.st0{fill:#FE3531;}
</style>
<g id="R7SbiD.tif">
	<g>
		<path class="st0" d="M374.8,154.8c0,35.1,0.1,70.3,0,105.4c-0.2,60.3-45.8,112.5-101.8,116.9c-63.2,4.9-115.4-35.1-126.3-96.9
			c-1.1-6.4-1.5-13-1.2-19.4c0.7-17.4,9.9-28.3,27.3-29.8c17.5-1.5,28.2,7.8,31.8,24.9c1.7,8.2,1.7,17,4.5,24.8
			c8.6,24.4,33.1,38.6,58.7,35.1c24.6-3.4,44.8-24.1,46.2-50.5c1.4-26,0.5-52,0.6-78.1c0-48.1,0.1-96.3,0-144.4
			c-0.1-20.3,7.8-34.5,29.6-36.1c18.8-1.4,30.5,13.3,30.6,36.8C374.9,80.6,374.8,117.7,374.8,154.8z"/>
		<path class="st0" d="M259.6,491.2C147.8,491.1,47.2,421.3,7.9,316.7c-6.3-16.8-9.1-33.2,11.3-40.8c19.1-7.1,27.9,5.9,34.4,22.2
			c35,88.3,117.9,145.8,207.9,144.7c90.6-1.1,170.4-57.3,205.4-145.5c6.6-16.7,16.2-28.6,34.8-21.1c18.6,7.5,17,23.1,10.9,39.6
			C473.5,421,372.5,491.2,259.6,491.2z"/>
	</g>
</g>
</svg>
