<?xml version="1.0" encoding="utf-8"?>
<!-- Generator: Adobe Illustrator 19.1.0, SVG Export Plug-In . SVG Version: 6.00 Build 0)  -->
<svg version="1.1" id="Layer_1" xmlns="http://www.w3.org/2000/svg" xmlns:xlink="http://www.w3.org/1999/xlink" x="0px" y="0px"
	 viewBox="700 -62 1920 644" style="enable-background:new 700 -62 1920 644;" xml:space="preserve">
<style type="text/css">
	.st0{fill:#EFF9FF;}
	.st1{opacity:0.4;fill:#FFFFFF;enable-background:new    ;}
	.st2{opacity:0.1;enable-background:new    ;}
	.st3{fill:#D7EFFF;}
	.st4{fill:#E3F4FF;}
	.st5{fill:none;stroke:#5D5C5B;stroke-width:2;}
	.st6{opacity:0.7;}
	.st7{fill:url(#Shape_5_);}
	.st8{fill:none;stroke:#FFFFFF;stroke-width:11;stroke-linecap:round;}
	.st9{fill:url(#Shape_7_);}
	.st10{opacity:0.5;}
	.st11{fill:url(#Shape_9_);}
</style>
<title>download</title>
<desc>Created with Sketch.</desc>
<g id="Page-1">
	<g id="download">
		
			<g id="Group" transform="translate(1423.500000, 216.397000) scale(-1, 1) translate(-1423.500000, -216.397000) translate(1181.000000, 78.897000)">
			<polygon id="Shape" class="st0" points="-237.9,64.5 -237.9,32 -257.2,32 -257.2,64.5 -280,64.5 -280,14.2 -296.8,14.2 
				-296.8,-23.4 -310.5,-23.4 -310.5,-62 -338.9,-62 -338.9,-23.4 -352.6,-23.4 -352.6,14.2 -368.9,14.2 -368.9,-31 -378,-31 
				-378,-53.9 -383.6,-53.9 -383.6,-31 -416.1,-31 -416.1,113.2 -441,113.2 -441,98 -456.2,98 -456.2,113.2 -481.1,113.2 
				-481.1,64.5 -525.8,64.5 -525.8,32 -545.1,32 -545.1,64.5 -546.1,64.5 -546.1,127 -566.4,127 -566.4,90.4 -590.8,90.4 
				-590.8,127 -611.1,127 -611.1,14.2 -626.9,14.2 -626.9,-23.4 -684.8,-23.4 -684.8,14.2 -700,14.2 -700,212.8 -611.1,212.8 
				-546.1,212.8 -481.1,212.8 -416.1,212.8 -368.9,212.8 -280,212.8 -215,212.8 -215,64.5 			"/>
			<rect id="Rectangle-path" x="-690.4" y="38.1" class="st1" width="21.3" height="-12.2"/>
			<rect id="Rectangle-path_1_" x="-642.6" y="38.1" class="st1" width="21.3" height="-12.2"/>
			<rect id="Rectangle-path_2_" x="-690.4" y="61.9" class="st1" width="21.3" height="-12.2"/>
			<rect id="Rectangle-path_3_" x="-642.6" y="61.9" class="st1" width="21.3" height="-12.2"/>
			<rect id="Rectangle-path_4_" x="-690.4" y="85.8" class="st1" width="21.3" height="-12.2"/>
			<rect id="Rectangle-path_5_" x="-642.6" y="85.8" class="st1" width="21.3" height="-12.2"/>
			<rect id="Rectangle-path_6_" x="-690.4" y="109.7" class="st1" width="21.3" height="-12.2"/>
			<rect id="Rectangle-path_7_" x="-642.6" y="109.7" class="st1" width="21.3" height="-12.2"/>
			<rect id="Rectangle-path_8_" x="-690.4" y="133.6" class="st1" width="21.3" height="-12.2"/>
			<rect id="Rectangle-path_9_" x="-642.6" y="133.6" class="st1" width="21.3" height="-12.2"/>
			<rect id="Rectangle-path_10_" x="-690.4" y="157.4" class="st1" width="21.3" height="-12.2"/>
			<rect id="Rectangle-path_11_" x="-642.6" y="157.4" class="st1" width="21.3" height="-12.2"/>
			<rect id="Rectangle-path_12_" x="-690.4" y="181.3" class="st1" width="21.3" height="-12.2"/>
			<rect id="Rectangle-path_13_" x="-642.6" y="181.3" class="st1" width="21.3" height="-12.2"/>
			<rect id="Rectangle-path_14_" x="-603.5" y="145.2" class="st1" width="49.8" height="-6.1"/>
			<rect id="Rectangle-path_15_" x="-603.5" y="154.4" class="st1" width="49.8" height="-6.1"/>
			<rect id="Rectangle-path_16_" x="-603.5" y="163.5" class="st1" width="49.8" height="-6.1"/>
			<rect id="Rectangle-path_17_" x="-473.5" y="148.3" class="st1" width="49.8" height="-6.1"/>
			<rect id="Rectangle-path_18_" x="-473.5" y="157.4" class="st1" width="49.8" height="-6.1"/>
			<rect id="Rectangle-path_19_" x="-473.5" y="166.6" class="st1" width="49.8" height="-6.1"/>
			<rect id="Rectangle-path_20_" x="-603.5" y="172.7" class="st1" width="49.8" height="-6.1"/>
			<rect id="Rectangle-path_21_" x="-603.5" y="181.8" class="st1" width="49.8" height="-6.1"/>
			<rect id="Rectangle-path_22_" x="-603.5" y="191" class="st1" width="49.8" height="-6.1"/>
			<rect id="Rectangle-path_23_" x="-535.5" y="93.9" class="st1" width="13.7" height="-17.8"/>
			<rect id="Rectangle-path_24_" x="-505.5" y="93.9" class="st1" width="13.7" height="-17.8"/>
			<rect id="Rectangle-path_25_" x="-535.5" y="122.4" class="st1" width="13.7" height="-17.8"/>
			<rect id="Rectangle-path_26_" x="-505.5" y="122.4" class="st1" width="13.7" height="-17.8"/>
			<rect id="Rectangle-path_27_" x="-535.5" y="150.8" class="st1" width="13.7" height="-17.8"/>
			<rect id="Rectangle-path_28_" x="-505.5" y="150.8" class="st1" width="13.7" height="-17.8"/>
			<rect id="Rectangle-path_29_" x="-535.5" y="179.3" class="st1" width="13.7" height="-17.8"/>
			<rect id="Rectangle-path_30_" x="-505.5" y="179.3" class="st1" width="13.7" height="-17.8"/>
			<rect id="Rectangle-path_31_" x="-416.1" y="4" class="st1" width="18.3" height="-23.4"/>
			<rect id="Rectangle-path_32_" x="-416.1" y="37.6" class="st1" width="18.3" height="-23.4"/>
			<rect id="Rectangle-path_33_" x="-416.1" y="71.1" class="st1" width="18.3" height="-23.4"/>
			<rect id="Rectangle-path_34_" x="-416.1" y="104.6" class="st1" width="18.3" height="-23.4"/>
			<rect id="Rectangle-path_35_" x="-416.1" y="138.1" class="st1" width="18.3" height="-23.4"/>
			<rect id="Rectangle-path_36_" x="-416.1" y="171.7" class="st1" width="18.3" height="-23.4"/>
			<rect id="Rectangle-path_37_" x="-358.5" y="48.2" class="st1" width="68.1" height="-19.8"/>
			<rect id="Rectangle-path_38_" x="-358.2" y="90.9" class="st1" width="68.1" height="-19.8"/>
			<rect id="Rectangle-path_39_" x="-358" y="133.6" class="st1" width="68.1" height="-19.8"/>
			<rect id="Rectangle-path_40_" x="-357.7" y="176.2" class="st1" width="68.1" height="-19.8"/>
			<rect id="Rectangle-path_41_" x="-684.8" y="6.6" class="st1" width="9.1" height="-19.3"/>
			<rect id="Rectangle-path_42_" x="-237.9" y="105.6" class="st1" width="22.9" height="-29.5"/>
			<rect id="Rectangle-path_43_" x="-237.9" y="148.3" class="st1" width="22.9" height="-29.5"/>
			<rect id="Rectangle-path_44_" x="-237.9" y="191" class="st1" width="22.9" height="-29.5"/>
			<path id="Shape_1_" class="st2" d="M-512.8,95c0,0-1.3,6.5-1.6,9.9"/>
		</g>
		<g id="Group_1_" transform="translate(1105.000000, 121.000000)">
			<polygon id="Shape_2_" class="st3" points="1265.1,92.6 1265.1,52.9 1241.5,52.9 1241.5,92.6 1213.5,92.6 1213.5,31.2 1193,31.2 
				1193,-14.8 1176.3,-14.8 1176.3,-62 1141.5,-62 1141.5,-14.8 1124.7,-14.8 1124.7,31.2 1104.9,31.2 1104.9,-24.1 1093.7,-24.1 
				1093.7,-52.1 1086.8,-52.1 1086.8,-24.1 1047.1,-24.1 1047.1,152.3 1016.7,152.3 1016.7,133.6 998.1,133.6 998.1,152.3 
				967.6,152.3 967.6,92.6 913,92.6 913,52.9 889.4,52.9 889.4,92.6 888.1,92.6 888.1,169 863.3,169 863.3,124.3 833.5,124.3 
				833.5,169 808.7,169 808.7,31.2 789.4,31.2 789.4,-14.8 718.6,-14.8 718.6,31.2 700,31.2 700,274 808.7,274 888.1,274 967.6,274 
				1047.1,274 1104.9,274 1213.5,274 1293,274 1293,92.6 			"/>
			<rect id="Rectangle-path_45_" x="711.8" y="45.4" class="st1" width="26.1" height="14.9"/>
			<rect id="Rectangle-path_46_" x="770.2" y="45.4" class="st1" width="26.1" height="14.9"/>
			<rect id="Rectangle-path_47_" x="711.8" y="74.6" class="st1" width="26.1" height="14.9"/>
			<rect id="Rectangle-path_48_" x="770.2" y="74.6" class="st1" width="26.1" height="14.9"/>
			<rect id="Rectangle-path_49_" x="711.8" y="103.8" class="st1" width="26.1" height="14.9"/>
			<rect id="Rectangle-path_50_" x="770.2" y="103.8" class="st1" width="26.1" height="14.9"/>
			<rect id="Rectangle-path_51_" x="711.8" y="133" class="st1" width="26.1" height="14.9"/>
			<rect id="Rectangle-path_52_" x="770.2" y="133" class="st1" width="26.1" height="14.9"/>
			<rect id="Rectangle-path_53_" x="711.8" y="162.2" class="st1" width="26.1" height="14.9"/>
			<rect id="Rectangle-path_54_" x="770.2" y="162.2" class="st1" width="26.1" height="14.9"/>
			<rect id="Rectangle-path_55_" x="711.8" y="191.4" class="st1" width="26.1" height="14.9"/>
			<rect id="Rectangle-path_56_" x="770.2" y="191.4" class="st1" width="26.1" height="14.9"/>
			<rect id="Rectangle-path_57_" x="711.8" y="220.6" class="st1" width="26.1" height="14.9"/>
			<rect id="Rectangle-path_58_" x="770.2" y="220.6" class="st1" width="26.1" height="14.9"/>
			<rect id="Rectangle-path_59_" x="818" y="183.9" class="st1" width="60.9" height="7.5"/>
			<rect id="Rectangle-path_60_" x="818" y="195.1" class="st1" width="60.9" height="7.5"/>
			<rect id="Rectangle-path_61_" x="818" y="206.3" class="st1" width="60.9" height="7.5"/>
			<rect id="Rectangle-path_62_" x="976.9" y="187.7" class="st1" width="60.9" height="7.5"/>
			<rect id="Rectangle-path_63_" x="976.9" y="198.9" class="st1" width="60.9" height="7.5"/>
			<rect id="Rectangle-path_64_" x="976.9" y="210" class="st1" width="60.9" height="7.5"/>
			<rect id="Rectangle-path_65_" x="818" y="217.5" class="st1" width="60.9" height="7.5"/>
			<rect id="Rectangle-path_66_" x="818" y="228.7" class="st1" width="60.9" height="7.5"/>
			<rect id="Rectangle-path_67_" x="818" y="239.8" class="st1" width="60.9" height="7.5"/>
			<rect id="Rectangle-path_68_" x="901.2" y="106.9" class="st1" width="16.8" height="21.7"/>
			<rect id="Rectangle-path_69_" x="937.8" y="106.9" class="st1" width="16.8" height="21.7"/>
			<rect id="Rectangle-path_70_" x="901.2" y="141.7" class="st1" width="16.8" height="21.7"/>
			<rect id="Rectangle-path_71_" x="937.8" y="141.7" class="st1" width="16.8" height="21.7"/>
			<rect id="Rectangle-path_72_" x="901.2" y="176.5" class="st1" width="16.8" height="21.7"/>
			<rect id="Rectangle-path_73_" x="937.8" y="176.5" class="st1" width="16.8" height="21.7"/>
			<rect id="Rectangle-path_74_" x="901.2" y="211.3" class="st1" width="16.8" height="21.7"/>
			<rect id="Rectangle-path_75_" x="937.8" y="211.3" class="st1" width="16.8" height="21.7"/>
			<rect id="Rectangle-path_76_" x="1047.1" y="-9.8" class="st1" width="22.4" height="28.6"/>
			<rect id="Rectangle-path_77_" x="1047.1" y="31.2" class="st1" width="22.4" height="28.6"/>
			<rect id="Rectangle-path_78_" x="1047.1" y="72.2" class="st1" width="22.4" height="28.6"/>
			<rect id="Rectangle-path_79_" x="1047.1" y="113.1" class="st1" width="22.4" height="28.6"/>
			<rect id="Rectangle-path_80_" x="1047.1" y="154.1" class="st1" width="22.4" height="28.6"/>
			<rect id="Rectangle-path_81_" x="1047.1" y="195.1" class="st1" width="22.4" height="28.6"/>
			<rect id="Rectangle-path_82_" x="1117.6" y="48.6" class="st1" width="83.2" height="24.2"/>
			<rect id="Rectangle-path_83_" x="1117.9" y="100.7" class="st1" width="83.2" height="24.2"/>
			<rect id="Rectangle-path_84_" x="1118.2" y="152.9" class="st1" width="83.2" height="24.2"/>
			<rect id="Rectangle-path_85_" x="1118.5" y="205.1" class="st1" width="83.2" height="24.2"/>
			<rect id="Rectangle-path_86_" x="718.6" y="-1.8" class="st1" width="11.2" height="23.6"/>
			<rect id="Rectangle-path_87_" x="1265.1" y="106.9" class="st1" width="27.9" height="36"/>
			<rect id="Rectangle-path_88_" x="1265.1" y="159.1" class="st1" width="27.9" height="36"/>
			<rect id="Rectangle-path_89_" x="1265.1" y="211.3" class="st1" width="27.9" height="36"/>
			<path id="Shape_3_" class="st2" d="M928.9,130c0,0-1.6,7.9-2,12.1"/>
		</g>
		<path id="Shape_4_" class="st4" d="M700,402.2c130.5,49.8,297.3,74.8,500.4,74.8c304.6,0,552.8-97.2,854.3-129.8
			c201-21.8,389.4-11.5,565.3,30.7V582H701L700,402.2z"/>
		<path id="Shape_6_" class="st5" d="M1627,426"/>
		<path id="Shape_8_" class="st5" d="M1806,392 M1806,333 M2438,348"/>
		<g id="Group_2_" transform="translate(1678.000000, 224.000000)" class="st6">
			
				<linearGradient id="Shape_5_" gradientUnits="userSpaceOnUse" x1="-295" y1="297.5898" x2="-295" y2="296.5898" gradientTransform="matrix(40 0 0 -39 12520 11544)">
				<stop  offset="0" style="stop-color:#FFA3A3"/>
				<stop  offset="1" style="stop-color:#FFA569"/>
			</linearGradient>
			<path id="Shape_10_" class="st7" d="M707-62h26c3.9,0,7,3.1,7,7v20.1c0,3.9-3.1,7-7,7h-6.5L720-23l-5.7-4.9H707c-3.9,0-7-3.1-7-7
				V-55C700-58.9,703.1-62,707-62z"/>
			<polyline id="Shape_11_" class="st8" points="716,-47 720.5,-43 725,-47 			"/>
		</g>
		<g id="Group_3_" transform="translate(1456.000000, 0.000000)">
			
				<linearGradient id="Shape_7_" gradientUnits="userSpaceOnUse" x1="-73" y1="521.5897" x2="-73" y2="520.5897" gradientTransform="matrix(40 0 0 -39 3640 20280)">
				<stop  offset="0" style="stop-color:#FF9D9D"/>
				<stop  offset="1" style="stop-color:#FCA46A"/>
			</linearGradient>
			<path id="Shape_12_" class="st9" d="M707-62h26c3.9,0,7,3.1,7,7v20.1c0,3.9-3.1,7-7,7h-6.5L720-23l-5.7-4.9H707c-3.9,0-7-3.1-7-7
				V-55C700-58.9,703.1-62,707-62z"/>
			<polyline id="Shape_13_" class="st8" points="716,-47 720.5,-43 725,-47 			"/>
		</g>
		<g id="Group_4_" transform="translate(1163.000000, 116.000000)" class="st10">
			
				<linearGradient id="Shape_9_" gradientUnits="userSpaceOnUse" x1="220" y1="405.5898" x2="220" y2="404.5898" gradientTransform="matrix(40 0 0 -39 -8080 15756)">
				<stop  offset="0" style="stop-color:#FFA3A3"/>
				<stop  offset="1" style="stop-color:#FFA569"/>
			</linearGradient>
			<path id="Shape_14_" class="st11" d="M707-62h26c3.9,0,7,3.1,7,7v20.1c0,3.9-3.1,7-7,7h-6.5L720-23l-5.7-4.9H707
				c-3.9,0-7-3.1-7-7V-55C700-58.9,703.1-62,707-62z"/>
			<polyline id="Shape_15_" class="st8" points="716,-47 720.5,-43 725,-47 			"/>
		</g>
	</g>
</g>
</svg>
